<svg height="2942" width="720" xmlns="http://www.w3.org/2000/svg">
<rect height="2942" fill="#555" width="720"></rect>
<text fill="#7f7" font-family="Courier New" font-size="12" xml:space="preserve">
<tspan x="10" y="26">└─┬ gh@1.12.8 </tspan>
<tspan x="10" y="42">  ├── async@1.5.2 </tspan>
<tspan x="10" y="58">  ├─┬ babel-polyfill@6.23.0 </tspan>
<tspan x="10" y="74">  │ ├── babel-runtime@6.23.0 </tspan>
<tspan x="10" y="90">  │ ├── core-js@2.4.1 </tspan>
<tspan x="10" y="106">  │ └── regenerator-runtime@0.10.3 </tspan>
<tspan x="10" y="122">  ├── colors@1.1.2 </tspan>
<tspan x="10" y="138">  ├─┬ github@0.2.4 </tspan>
<tspan x="10" y="154">  │ └── mime@1.3.4 </tspan>
<tspan x="10" y="170">  ├─┬ handlebars@4.0.6 </tspan>
<tspan x="10" y="186">  │ ├─┬ optimist@0.6.1 </tspan>
<tspan x="10" y="202">  │ │ ├── minimist@0.0.10 </tspan>
<tspan x="10" y="218">  │ │ └── wordwrap@0.0.3 </tspan>
<tspan x="10" y="234">  │ ├─┬ source-map@0.4.4 </tspan>
<tspan x="10" y="250">  │ │ └── amdefine@1.0.1 </tspan>
<tspan x="10" y="266">  │ └─┬ uglify-js@2.8.21 </tspan>
<tspan x="10" y="282">  │   ├── source-map@0.5.6 </tspan>
<tspan x="10" y="298">  │   ├── uglify-to-browserify@1.0.2 </tspan>
<tspan x="10" y="314">  │   └─┬ yargs@3.10.0 </tspan>
<tspan x="10" y="330">  │     ├── camelcase@1.2.1 </tspan>
<tspan x="10" y="346">  │     ├─┬ cliui@2.1.0 </tspan>
<tspan x="10" y="362">  │     │ ├─┬ center-align@0.1.3 </tspan>
<tspan x="10" y="378">  │     │ │ ├─┬ align-text@0.1.4 </tspan>
<tspan x="10" y="394">  │     │ │ │ ├─┬ kind-of@3.1.0 </tspan>
<tspan x="10" y="410">  │     │ │ │ │ └── is-buffer@1.1.5 </tspan>
<tspan x="10" y="426">  │     │ │ │ ├── longest@1.0.1 </tspan>
<tspan x="10" y="442">  │     │ │ │ └── repeat-string@1.6.1 </tspan>
<tspan x="10" y="458">  │     │ │ └── lazy-cache@1.0.4 </tspan>
<tspan x="10" y="474">  │     │ ├── right-align@0.1.3 </tspan>
<tspan x="10" y="490">  │     │ └── wordwrap@0.0.2 </tspan>
<tspan x="10" y="506">  │     ├── decamelize@1.2.0 </tspan>
<tspan x="10" y="522">  │     └── window-size@0.1.0 </tspan>
<tspan x="10" y="538">  ├─┬ inquirer@0.11.4 </tspan>
<tspan x="10" y="554">  │ ├── ansi-escapes@1.4.0 </tspan>
<tspan x="10" y="570">  │ ├── ansi-regex@2.1.1 </tspan>
<tspan x="10" y="586">  │ ├─┬ chalk@1.1.3 </tspan>
<tspan x="10" y="602">  │ │ ├── ansi-styles@2.2.1 </tspan>
<tspan x="10" y="618">  │ │ ├── escape-string-regexp@1.0.5 </tspan>
<tspan x="10" y="634">  │ │ ├── has-ansi@2.0.0 </tspan>
<tspan x="10" y="650">  │ │ └── supports-color@2.0.0 </tspan>
<tspan x="10" y="666">  │ ├─┬ cli-cursor@1.0.2 </tspan>
<tspan x="10" y="682">  │ │ └─┬ restore-cursor@1.0.1 </tspan>
<tspan x="10" y="698">  │ │   ├── exit-hook@1.1.1 </tspan>
<tspan x="10" y="714">  │ │   └── onetime@1.1.0 </tspan>
<tspan x="10" y="730">  │ ├── cli-width@1.1.1 </tspan>
<tspan x="10" y="746">  │ ├── figures@1.7.0 </tspan>
<tspan x="10" y="762">  │ ├─┬ readline2@1.0.1 </tspan>
<tspan x="10" y="778">  │ │ ├── code-point-at@1.1.0 </tspan>
<tspan x="10" y="794">  │ │ ├─┬ is-fullwidth-code-point@1.0.0 </tspan>
<tspan x="10" y="810">  │ │ │ └── number-is-nan@1.0.1 </tspan>
<tspan x="10" y="826">  │ │ └── mute-stream@0.0.5 </tspan>
<tspan x="10" y="842">  │ ├─┬ run-async@0.1.0 </tspan>
<tspan x="10" y="858">  │ │ └─┬ once@1.4.0 </tspan>
<tspan x="10" y="874">  │ │   └── wrappy@1.0.2 </tspan>
<tspan x="10" y="890">  │ ├── rx-lite@3.1.2 </tspan>
<tspan x="10" y="906">  │ ├── string-width@1.0.2 </tspan>
<tspan x="10" y="922">  │ ├── strip-ansi@3.0.1 </tspan>
<tspan x="10" y="938">  │ └── through@2.3.8 </tspan>
<tspan x="10" y="954">  ├─┬ insight@0.7.0 </tspan>
<tspan x="10" y="970">  │ ├─┬ configstore@1.4.0 </tspan>
<tspan x="10" y="986">  │ │ ├── graceful-fs@4.1.11 </tspan>
<tspan x="10" y="1002">  │ │ ├─┬ mkdirp@0.5.1 </tspan>
<tspan x="10" y="1018">  │ │ │ └── minimist@0.0.8 </tspan>
<tspan x="10" y="1034">  │ │ ├── os-tmpdir@1.0.2 </tspan>
<tspan x="10" y="1050">  │ │ ├─┬ osenv@0.1.4 </tspan>
<tspan x="10" y="1066">  │ │ │ └── os-homedir@1.0.2 </tspan>
<tspan x="10" y="1082">  │ │ ├── uuid@2.0.3 </tspan>
<tspan x="10" y="1098">  │ │ ├─┬ write-file-atomic@1.3.1 </tspan>
<tspan x="10" y="1114">  │ │ │ ├── imurmurhash@0.1.4 </tspan>
<tspan x="10" y="1130">  │ │ │ └── slide@1.1.6 </tspan>
<tspan x="10" y="1146">  │ │ └── xdg-basedir@2.0.0 </tspan>
<tspan x="10" y="1162">  │ ├── inquirer@0.10.1 </tspan>
<tspan x="10" y="1178">  │ ├─┬ lodash.debounce@3.1.1 </tspan>
<tspan x="10" y="1194">  │ │ └── lodash._getnative@3.9.1 </tspan>
<tspan x="10" y="1210">  │ ├── object-assign@4.1.1 </tspan>
<tspan x="10" y="1226">  │ ├─┬ os-name@1.0.3 </tspan>
<tspan x="10" y="1242">  │ │ ├─┬ osx-release@1.1.0 </tspan>
<tspan x="10" y="1258">  │ │ │ └── minimist@1.2.0 </tspan>
<tspan x="10" y="1274">  │ │ └── win-release@1.1.1 </tspan>
<tspan x="10" y="1290">  │ └─┬ tough-cookie@2.3.2 </tspan>
<tspan x="10" y="1306">  │   └── punycode@1.4.1 </tspan>
<tspan x="10" y="1322">  ├── lodash@3.10.1 </tspan>
<tspan x="10" y="1338">  ├── moment@2.18.1 </tspan>
<tspan x="10" y="1354">  ├─┬ nopt@3.0.6 </tspan>
<tspan x="10" y="1370">  │ └── abbrev@1.1.0 </tspan>
<tspan x="10" y="1386">  ├── open@0.0.5 </tspan>
<tspan x="10" y="1402">  ├─┬ request@2.81.0 </tspan>
<tspan x="10" y="1418">  │ ├── aws-sign2@0.6.0 </tspan>
<tspan x="10" y="1434">  │ ├── aws4@1.6.0 </tspan>
<tspan x="10" y="1450">  │ ├── caseless@0.12.0 </tspan>
<tspan x="10" y="1466">  │ ├─┬ combined-stream@1.0.5 </tspan>
<tspan x="10" y="1482">  │ │ └── delayed-stream@1.0.0 </tspan>
<tspan x="10" y="1498">  │ ├── extend@3.0.0 </tspan>
<tspan x="10" y="1514">  │ ├── forever-agent@0.6.1 </tspan>
<tspan x="10" y="1530">  │ ├─┬ form-data@2.1.2 </tspan>
<tspan x="10" y="1546">  │ │ └── asynckit@0.4.0 </tspan>
<tspan x="10" y="1562">  │ ├─┬ har-validator@4.2.1 </tspan>
<tspan x="10" y="1578">  │ │ ├─┬ ajv@4.11.5 </tspan>
<tspan x="10" y="1594">  │ │ │ ├── co@4.6.0 </tspan>
<tspan x="10" y="1610">  │ │ │ └─┬ json-stable-stringify@1.0.1 </tspan>
<tspan x="10" y="1626">  │ │ │   └── jsonify@0.0.0 </tspan>
<tspan x="10" y="1642">  │ │ └── har-schema@1.0.5 </tspan>
<tspan x="10" y="1658">  │ ├─┬ hawk@3.1.3 </tspan>
<tspan x="10" y="1674">  │ │ ├── boom@2.10.1 </tspan>
<tspan x="10" y="1690">  │ │ ├── cryptiles@2.0.5 </tspan>
<tspan x="10" y="1706">  │ │ ├── hoek@2.16.3 </tspan>
<tspan x="10" y="1722">  │ │ └── sntp@1.0.9 </tspan>
<tspan x="10" y="1738">  │ ├─┬ http-signature@1.1.1 </tspan>
<tspan x="10" y="1754">  │ │ ├── assert-plus@0.2.0 </tspan>
<tspan x="10" y="1770">  │ │ ├─┬ jsprim@1.4.0 </tspan>
<tspan x="10" y="1786">  │ │ │ ├── assert-plus@1.0.0 </tspan>
<tspan x="10" y="1802">  │ │ │ ├── extsprintf@1.0.2 </tspan>
<tspan x="10" y="1818">  │ │ │ ├── json-schema@0.2.3 </tspan>
<tspan x="10" y="1834">  │ │ │ └── verror@1.3.6 </tspan>
<tspan x="10" y="1850">  │ │ └─┬ sshpk@1.11.0 </tspan>
<tspan x="10" y="1866">  │ │   ├── asn1@0.2.3 </tspan>
<tspan x="10" y="1882">  │ │   ├── assert-plus@1.0.0 </tspan>
<tspan x="10" y="1898">  │ │   ├── bcrypt-pbkdf@1.0.1 </tspan>
<tspan x="10" y="1914">  │ │   ├─┬ dashdash@1.14.1 </tspan>
<tspan x="10" y="1930">  │ │   │ └── assert-plus@1.0.0 </tspan>
<tspan x="10" y="1946">  │ │   ├── ecc-jsbn@0.1.1 </tspan>
<tspan x="10" y="1962">  │ │   ├─┬ getpass@0.1.6 </tspan>
<tspan x="10" y="1978">  │ │   │ └── assert-plus@1.0.0 </tspan>
<tspan x="10" y="1994">  │ │   ├── jodid25519@1.0.2 </tspan>
<tspan x="10" y="2010">  │ │   ├── jsbn@0.1.1 </tspan>
<tspan x="10" y="2026">  │ │   └── tweetnacl@0.14.5 </tspan>
<tspan x="10" y="2042">  │ ├── is-typedarray@1.0.0 </tspan>
<tspan x="10" y="2058">  │ ├── isstream@0.1.2 </tspan>
<tspan x="10" y="2074">  │ ├── json-stringify-safe@5.0.1 </tspan>
<tspan x="10" y="2090">  │ ├─┬ mime-types@2.1.15 </tspan>
<tspan x="10" y="2106">  │ │ └── mime-db@1.27.0 </tspan>
<tspan x="10" y="2122">  │ ├── oauth-sign@0.8.2 </tspan>
<tspan x="10" y="2138">  │ ├── performance-now@0.2.0 </tspan>
<tspan x="10" y="2154">  │ ├── qs@6.4.0 </tspan>
<tspan x="10" y="2170">  │ ├── safe-buffer@5.0.1 </tspan>
<tspan x="10" y="2186">  │ ├── stringstream@0.0.5 </tspan>
<tspan x="10" y="2202">  │ ├── tunnel-agent@0.6.0 </tspan>
<tspan x="10" y="2218">  │ └── uuid@3.0.1 </tspan>
<tspan x="10" y="2234">  ├── truncate@2.0.0 </tspan>
<tspan x="10" y="2250">  ├─┬ update-notifier@0.5.0 </tspan>
<tspan x="10" y="2266">  │ ├── is-npm@1.0.0 </tspan>
<tspan x="10" y="2282">  │ ├─┬ latest-version@1.0.1 </tspan>
<tspan x="10" y="2298">  │ │ └─┬ package-json@1.2.0 </tspan>
<tspan x="10" y="2314">  │ │   ├─┬ got@3.3.1 </tspan>
<tspan x="10" y="2330">  │ │   │ ├─┬ duplexify@3.5.0 </tspan>
<tspan x="10" y="2346">  │ │   │ │ ├─┬ end-of-stream@1.0.0 </tspan>
<tspan x="10" y="2362">  │ │   │ │ │ └── once@1.3.3 </tspan>
<tspan x="10" y="2378">  │ │   │ │ ├── inherits@2.0.3 </tspan>
<tspan x="10" y="2394">  │ │   │ │ ├─┬ readable-stream@2.2.6 </tspan>
<tspan x="10" y="2410">  │ │   │ │ │ ├── buffer-shims@1.0.0 </tspan>
<tspan x="10" y="2426">  │ │   │ │ │ ├── core-util-is@1.0.2 </tspan>
<tspan x="10" y="2442">  │ │   │ │ │ ├── isarray@1.0.0 </tspan>
<tspan x="10" y="2458">  │ │   │ │ │ ├── process-nextick-args@1.0.7 </tspan>
<tspan x="10" y="2474">  │ │   │ │ │ ├── string_decoder@0.10.31 </tspan>
<tspan x="10" y="2490">  │ │   │ │ │ └── util-deprecate@1.0.2 </tspan>
<tspan x="10" y="2506">  │ │   │ │ └── stream-shift@1.0.0 </tspan>
<tspan x="10" y="2522">  │ │   │ ├── infinity-agent@2.0.3 </tspan>
<tspan x="10" y="2538">  │ │   │ ├── is-redirect@1.0.0 </tspan>
<tspan x="10" y="2554">  │ │   │ ├── is-stream@1.1.0 </tspan>
<tspan x="10" y="2570">  │ │   │ ├── lowercase-keys@1.0.0 </tspan>
<tspan x="10" y="2586">  │ │   │ ├── nested-error-stacks@1.0.2 </tspan>
<tspan x="10" y="2602">  │ │   │ ├── object-assign@3.0.0 </tspan>
<tspan x="10" y="2618">  │ │   │ ├── prepend-http@1.0.4 </tspan>
<tspan x="10" y="2634">  │ │   │ ├─┬ read-all-stream@3.1.0 </tspan>
<tspan x="10" y="2650">  │ │   │ │ └─┬ pinkie-promise@2.0.1 </tspan>
<tspan x="10" y="2666">  │ │   │ │   └── pinkie@2.0.4 </tspan>
<tspan x="10" y="2682">  │ │   │ └── timed-out@2.0.0 </tspan>
<tspan x="10" y="2698">  │ │   └─┬ registry-url@3.1.0 </tspan>
<tspan x="10" y="2714">  │ │     └─┬ rc@1.2.1 </tspan>
<tspan x="10" y="2730">  │ │       ├── deep-extend@0.4.1 </tspan>
<tspan x="10" y="2746">  │ │       ├── ini@1.3.4 </tspan>
<tspan x="10" y="2762">  │ │       ├── minimist@1.2.0 </tspan>
<tspan x="10" y="2778">  │ │       └── strip-json-comments@2.0.1 </tspan>
<tspan x="10" y="2794">  │ ├─┬ repeating@1.1.3 </tspan>
<tspan x="10" y="2810">  │ │ └── is-finite@1.0.2 </tspan>
<tspan x="10" y="2826">  │ ├─┬ semver-diff@2.1.0 </tspan>
<tspan x="10" y="2842">  │ │ └── semver@5.3.0 </tspan>
<tspan x="10" y="2858">  │ └── string-length@1.0.1 </tspan>
<tspan x="10" y="2874">  ├── userhome@1.0.0 </tspan>
<tspan x="10" y="2890">  ├─┬ which@1.2.14 </tspan>
<tspan x="10" y="2906">  │ └── isexe@2.0.0 </tspan>
<tspan x="10" y="2922">  └── wordwrap@1.0.0</tspan>
</text>
</svg>
